# xmcd
#
# Track frame offsets:
#  150
#  20908
#  38496
#  63646
#  81971
#  97796
#  114058
#  129521
#  140996
#  161046
#  176896
#  198783
#  214288
#  236088
#
# Disc length: 3325 seconds
#
# Revision: 0
# Processed by: cddbd v1.5.1PL2 Copyright (c) Steve Scherf et al.
# Submitted via: Collectorz.com_Music_Collector 6.9
#
DISCID=c60cfb0e
DTITLE=Various Artist - Buon Giorno Italia ! [CD1]
DYEAR=2005
DGENRE=Pop
TTITLE0=Lucio Dalla - Washington
TTITLE1=Paolo Conte - Hemingway
TTITLE2=Luca Carboni - Mare Mare
TTITLE3=Eduardo De Crescenzo - Mani
TTITLE4=Meccano - La Ragazze Come Me
TTITLE5=Domenico Modugno - Nel Blu Dipinto Di Blu (Volare)
TTITLE6=Equipe '84 - Tutta Mia La Citta
TTITLE7=Fiordaliso - Il Mio Angelo
TTITLE8=Gazebo - Attimi Diversi
TTITLE9=Gepy and Gepy - Blu
TTITLE10=Alberto Fortis - Qui La Luna (LIVE)
TTITLE11=Alexia - Per Dire Di No
TTITLE12=Banco - Paola, Pa
TTITLE13=Angelo Fabiani - Domani
EXTD=
EXTT0=
EXTT1=
EXTT2=
EXTT3=
EXTT4=
EXTT5=
EXTT6=
EXTT7=
EXTT8=
EXTT9=
EXTT10=
EXTT11=
EXTT12=
EXTT13=
PLAYORDER=
